# xmcd
#
# Track frame offsets: 
#        150
#        24323
#        49180
#        63049
#        76839
#        88490
#
# Disc length: 1355 seconds
#
# Revision: 0
# Processed by: cddbd v1.5.2PL0 Copyright (c) Steve Scherf et al.
# Submitted via: ExactAudioCopyFreeDBPlugin 1.0
#
DISCID=40054906
DTITLE=John Murry - The Graceless Age - Bonus Disc
DYEAR=2012
DGENRE=Americana
TTITLE0=California (Alternative Version)
TTITLE1=I Need You
TTITLE2=It Ain't Alright
TTITLE3=Porch Light
TTITLE4=Weighted Down
TTITLE5=Yr Lil Sister
EXTD=
EXTT0=
EXTT1=
EXTT2=
EXTT3=
EXTT4=
EXTT5=
PLAYORDER=
